<svg xmlns="http://www.w3.org/2000/svg" viewBox="0 0 212.56 18.24"><defs><style>.cls-1{fill:#667bf2;}.cls-2{fill:#fff;}</style></defs><g id="Layer_2" data-name="Layer 2"><g id="Layer_1-2" data-name="Layer 1"><path class="cls-1" d="M161.32,2.67A9.09,9.09,0,0,0,154.87,0h-9.12V18.24h9.12a9.12,9.12,0,0,0,6.45-15.57Zm-6.45,11.92H149.4V3.65h5.47a5.47,5.47,0,0,1,0,10.94Z"/><polygon class="cls-2" points="24.32 0 24.32 18.24 42.56 18.24 42.56 14.59 27.97 14.59 27.97 10.94 38.91 10.94 38.91 7.29 27.97 7.29 27.97 3.65 42.56 3.65 42.56 0 24.32 0"/><polygon class="cls-2" points="97.18 0 97.18 18.24 115.42 18.24 115.42 14.59 100.83 14.59 100.83 10.94 111.77 10.94 111.77 7.29 100.83 7.29 100.83 3.65 115.42 3.65 115.42 0 97.18 0"/><polygon class="cls-1" points="170.04 0 170.04 18.24 188.27 18.24 188.27 14.59 173.68 14.59 173.68 10.94 184.63 10.94 184.63 7.29 173.68 7.29 173.68 3.65 188.27 3.65 188.27 0 170.04 0"/><path class="cls-2" d="M136.05,0l-4.74,7.11a.85.85,0,0,1-.73.39.88.88,0,0,1-.73-.39L125.11,0h-3.65V18.24h3.65V5.47l2.64,4a3.41,3.41,0,0,0,2.83,1.51h0a3.43,3.43,0,0,0,2.84-1.51l2.63-4V18.24h3.65V0Z"/><path class="cls-2" d="M66.84,4.51A4.51,4.51,0,0,0,62.33,0H48.61V18.24h3.64v-7.3H61.6A5.23,5.23,0,0,0,66.84,5.7ZM61.37,7.3H52.25V3.65h9.12a1.83,1.83,0,1,1,0,3.65Z"/><path class="cls-2" d="M91.13,0H72.89V3.65h7.3V18.24h3.64V3.65h7.3Z"/><path class="cls-1" d="M212.56,0l-6.62,16.54a2.69,2.69,0,0,1-2.5,1.7h0a2.69,2.69,0,0,1-2.5-1.7L194.32,0H198l4.76,11.9a.77.77,0,0,0,1.42,0L208.91,0Z"/><path class="cls-2" d="M12.62,7.3H11.51v3.64h1.26a1.83,1.83,0,0,1,1.82,1.83h0a1.83,1.83,0,0,1-1.82,1.82H0v3.65H12.77a5.47,5.47,0,0,0,5.43-6.1A5.55,5.55,0,0,0,12.62,7.3Z"/><path class="cls-2" d="M5.47,0A5.47,5.47,0,0,0,0,5.47H0a5.47,5.47,0,0,0,5.47,5.47H6.73V7.3H5.47A1.82,1.82,0,0,1,3.65,5.47h0A1.81,1.81,0,0,1,5.47,3.65H18.24V0H5.47Z"/><rect class="cls-1" x="6.73" y="7.3" width="4.79" height="3.65"/></g></g></svg>